<?xml version="1.0" encoding="UTF-8"?>
<!DOCTYPE svg PUBLIC "-//W3C//DTD SVG 1.1//EN" "http://www.w3.org/Graphics/SVG/1.1/DTD/svg11.dtd">
<!-- Creator: CorelDRAW 2021 (64-Bit) -->
<svg xmlns="http://www.w3.org/2000/svg" xml:space="preserve" width="43.3492mm" height="43.3492mm" version="1.1" style="shape-rendering:geometricPrecision; text-rendering:geometricPrecision; image-rendering:optimizeQuality; fill-rule:evenodd; clip-rule:evenodd"
viewBox="0 0 4334.92 4334.92"
 xmlns:xlink="http://www.w3.org/1999/xlink"
 xmlns:xodm="http://www.corel.com/coreldraw/odm/2003">
 <defs>
  <style type="text/css">
   <![CDATA[
    .fil0 {fill:none}
    .fil3 {fill:#45C07D}
    .fil1 {fill:#45C07D}
    .fil2 {fill:#9933CC}
   ]]>
  </style>
 </defs>
 <g id="Layer_x0020_1">
  <metadata id="CorelCorpID_0Corel-Layer"/>
  <rect class="fil0" x="-0.02" y="-0.01" width="4334.93" height="4334.93"/>
  <path class="fil1" d="M2230.97 2641.42c-501.6,85.18 -444.82,520.52 -627.47,931.09 -20.34,45.72 -74.15,80.53 -110.73,72.1 -246.05,-56.79 -425.88,-520.52 -662.5,-1116.76 -441.98,-1113.71 896.95,-867.35 1400.7,113.57z"/>
  <path class="fil2" d="M1576.9 673.48c402.23,64.72 1000.95,428.5 1385.88,1024.45 424.34,656.98 429.73,1566.96 -69.33,1965.61 -57.48,45.92 -192.58,-72.63 -205.43,-243.1 -125.82,-826.35 -1079,-2255.84 -2009.17,-1611.87 -66.24,-1012.65 482.67,-1201.93 898.05,-1135.09z"/>
  <path class="fil3" d="M3344.75 789.42c202.08,141.71 542.43,650.05 101.3,2007.06 16.83,-687.25 -480.81,-1635.37 -1105.44,-1938.23 70.17,-156.98 770.52,-232.68 1004.14,-68.83z"/>
 </g>
</svg>
